<svg width="605" height="134" viewBox="0 0 605 134" fill="none" xmlns="http://www.w3.org/2000/svg">
<path d="M112.765 61.515C112.265 62.515 102.765 76.015 102.765 76.015L76.765 31.515C74.9479 28.5058 73.5574 27.5644 70.265 27.515H52.265L94.765 102.515C96.0488 105.834 95.9812 107.696 94.765 111.015L84.265 126.515L24.7649 21.515C22.1431 16.2945 28.9083 7.76359 31.7649 7.51505C34.6215 7.2665 79.265 7.01504 79.265 7.01504C83.4475 6.86801 85.2842 7.76943 87.765 11.015L111.765 55.515C112.852 57.8474 113.265 60.515 112.765 61.515Z" fill="#00DB33"/>
<path d="M49.7649 106.015L9.26489 39.015L1.26489 52.015C-0.0111771 54.9896 -0.275513 56.6337 0.264893 59.515L23.2649 99.515C25.0439 102.787 26.2441 104.236 28.7649 106.015H49.7649Z" fill="#00DB33"/>
<path d="M180.591 98.623C176.259 98.623 172.343 97.8813 168.843 96.398C165.401 94.9147 162.672 92.7787 160.655 89.99C158.637 87.2013 157.599 83.9083 157.54 80.111H170.89C171.068 82.6623 171.958 84.6797 173.56 86.163C175.221 87.6463 177.476 88.388 180.324 88.388C183.231 88.388 185.515 87.7057 187.177 86.341C188.838 84.917 189.669 83.0777 189.669 80.823C189.669 78.9837 189.105 77.4707 187.978 76.284C186.85 75.0973 185.426 74.1777 183.706 73.525C182.044 72.813 179.73 72.0417 176.764 71.211C172.729 70.0243 169.436 68.8673 166.885 67.74C164.393 66.5533 162.227 64.803 160.388 62.489C158.608 60.1157 157.718 56.971 157.718 53.055C157.718 49.3763 158.637 46.1723 160.477 43.443C162.316 40.7137 164.897 38.637 168.22 37.213C171.542 35.7297 175.34 34.988 179.612 34.988C186.02 34.988 191.211 36.5603 195.187 39.705C199.221 42.7903 201.446 47.1217 201.862 52.699H188.156C188.037 50.563 187.117 48.8127 185.397 47.448C183.735 46.024 181.51 45.312 178.722 45.312C176.289 45.312 174.331 45.935 172.848 47.181C171.424 48.427 170.712 50.2367 170.712 52.61C170.712 54.2713 171.246 55.6657 172.314 56.793C173.441 57.861 174.806 58.751 176.408 59.463C178.069 60.1157 180.383 60.887 183.35 61.777C187.384 62.9637 190.677 64.1503 193.229 65.337C195.78 66.5237 197.975 68.3037 199.815 70.677C201.654 73.0503 202.574 76.1653 202.574 80.022C202.574 83.3447 201.713 86.43 199.993 89.278C198.272 92.126 195.75 94.4103 192.428 96.131C189.105 97.7923 185.159 98.623 180.591 98.623ZM245.238 86.163H220.496L216.402 98H203.319L225.658 35.789H240.165L262.504 98H249.332L245.238 86.163ZM241.856 76.195L232.867 50.207L223.878 76.195H241.856ZM261.598 66.85C261.598 60.7387 262.963 55.28 265.692 50.474C268.481 45.6087 272.248 41.841 276.995 39.171C281.801 36.4417 287.171 35.077 293.104 35.077C300.046 35.077 306.128 36.857 311.349 40.417C316.57 43.977 320.219 48.9017 322.296 55.191H307.967C306.543 52.2243 304.526 49.9993 301.915 48.516C299.364 47.0327 296.397 46.291 293.015 46.291C289.396 46.291 286.162 47.1513 283.314 48.872C280.525 50.5333 278.33 52.9067 276.728 55.992C275.185 59.0773 274.414 62.6967 274.414 66.85C274.414 70.944 275.185 74.5633 276.728 77.708C278.33 80.7933 280.525 83.1963 283.314 84.917C286.162 86.5783 289.396 87.409 293.015 87.409C296.397 87.409 299.364 86.6673 301.915 85.184C304.526 83.6413 306.543 81.3867 307.967 78.42H322.296C320.219 84.7687 316.57 89.723 311.349 93.283C306.187 96.7837 300.105 98.534 293.104 98.534C287.171 98.534 281.801 97.199 276.995 94.529C272.248 91.7997 268.481 88.032 265.692 83.226C262.963 78.42 261.598 72.9613 261.598 66.85ZM339.169 88.121H359.639V98H326.709V35.878H339.169V88.121ZM377.348 35.878V98H364.888V35.878H377.348ZM426.975 98.623C422.643 98.623 418.727 97.8813 415.227 96.398C411.785 94.9147 409.056 92.7787 407.039 89.99C405.021 87.2013 403.983 83.9083 403.924 80.111H417.274C417.452 82.6623 418.342 84.6797 419.944 86.163C421.605 87.6463 423.86 88.388 426.708 88.388C429.615 88.388 431.899 87.7057 433.561 86.341C435.222 84.917 436.053 83.0777 436.053 80.823C436.053 78.9837 435.489 77.4707 434.362 76.284C433.234 75.0973 431.81 74.1777 430.09 73.525C428.428 72.813 426.114 72.0417 423.148 71.211C419.113 70.0243 415.82 68.8673 413.269 67.74C410.777 66.5533 408.611 64.803 406.772 62.489C404.992 60.1157 404.102 56.971 404.102 53.055C404.102 49.3763 405.021 46.1723 406.861 43.443C408.7 40.7137 411.281 38.637 414.604 37.213C417.926 35.7297 421.724 34.988 425.996 34.988C432.404 34.988 437.595 36.5603 441.571 39.705C445.605 42.7903 447.83 47.1217 448.246 52.699H434.54C434.421 50.563 433.501 48.8127 431.781 47.448C430.119 46.024 427.894 45.312 425.106 45.312C422.673 45.312 420.715 45.935 419.232 47.181C417.808 48.427 417.096 50.2367 417.096 52.61C417.096 54.2713 417.63 55.6657 418.698 56.793C419.825 57.861 421.19 58.751 422.792 59.463C424.453 60.1157 426.767 60.887 429.734 61.777C433.768 62.9637 437.061 64.1503 439.613 65.337C442.164 66.5237 444.359 68.3037 446.199 70.677C448.038 73.0503 448.958 76.1653 448.958 80.022C448.958 83.3447 448.097 86.43 446.377 89.278C444.656 92.126 442.134 94.4103 438.812 96.131C435.489 97.7923 431.543 98.623 426.975 98.623ZM524.552 48.694L510.134 98H496.695L487.706 63.557L478.717 98H465.189L450.682 48.694H463.32L472.042 86.252L481.476 48.694H494.648L503.904 86.163L512.626 48.694H524.552ZM534.053 42.82C531.858 42.82 530.018 42.1377 528.535 40.773C527.111 39.349 526.399 37.5987 526.399 35.522C526.399 33.4453 527.111 31.7247 528.535 30.36C530.018 28.936 531.858 28.224 534.053 28.224C536.248 28.224 538.058 28.936 539.482 30.36C540.965 31.7247 541.707 33.4453 541.707 35.522C541.707 37.5987 540.965 39.349 539.482 40.773C538.058 42.1377 536.248 42.82 534.053 42.82ZM540.194 48.694V98H527.734V48.694H540.194ZM571.55 58.929H562.917V98H550.279V58.929H544.672V48.694H550.279V46.202C550.279 40.15 552 35.7 555.441 32.852C558.883 30.004 564.074 28.669 571.016 28.847V39.349C567.99 39.2897 565.884 39.794 564.697 40.862C563.511 41.93 562.917 43.8583 562.917 46.647V48.694H571.55V58.929ZM590.572 58.929V82.781C590.572 84.4423 590.958 85.6587 591.729 86.43C592.56 87.142 593.924 87.498 595.823 87.498H601.608V98H593.776C583.274 98 578.023 92.8973 578.023 82.692V58.929H572.149V48.694H578.023V36.501H590.572V48.694H601.608V58.929H590.572Z" fill="black"/>
</svg>
