<svg width="589" height="134" viewBox="0 0 589 134" fill="none" xmlns="http://www.w3.org/2000/svg">
<path d="M112.765 61.515C112.265 62.515 102.765 76.015 102.765 76.015L76.765 31.515C74.9479 28.5058 73.5574 27.5644 70.265 27.515H52.265L94.765 102.515C96.0488 105.834 95.9812 107.696 94.765 111.015L84.265 126.515L24.7649 21.515C22.1431 16.2945 28.9083 7.76359 31.7649 7.51505C34.6215 7.2665 79.265 7.01504 79.265 7.01504C83.4475 6.86801 85.2842 7.76943 87.765 11.015L111.765 55.515C112.852 57.8474 113.265 60.515 112.765 61.515Z" fill="#00DB33"/>
<path d="M49.7649 106.015L9.26489 39.015L1.26489 52.015C-0.0111771 54.9896 -0.275513 56.6337 0.264893 59.515L23.2649 99.515C25.0439 102.787 26.2441 104.236 28.7649 106.015H49.7649Z" fill="#00DB33"/>
<path d="M164.59 98.623C160.259 98.623 156.343 97.8813 152.842 96.398C149.401 94.9147 146.672 92.7787 144.654 89.99C142.637 87.2013 141.599 83.9083 141.539 80.111H154.889C155.067 82.6623 155.957 84.6797 157.559 86.163C159.221 87.6463 161.475 88.388 164.323 88.388C167.231 88.388 169.515 87.7057 171.176 86.341C172.838 84.917 173.668 83.0777 173.668 80.823C173.668 78.9837 173.105 77.4707 171.977 76.284C170.85 75.0973 169.426 74.1777 167.705 73.525C166.044 72.813 163.73 72.0417 160.763 71.211C156.729 70.0243 153.436 68.8673 150.884 67.74C148.392 66.5533 146.227 64.803 144.387 62.489C142.607 60.1157 141.717 56.971 141.717 53.055C141.717 49.3763 142.637 46.1723 144.476 43.443C146.316 40.7137 148.897 38.637 152.219 37.213C155.542 35.7297 159.339 34.988 163.611 34.988C170.019 34.988 175.211 36.5603 179.186 39.705C183.221 42.7903 185.446 47.1217 185.861 52.699H172.155C172.037 50.563 171.117 48.8127 169.396 47.448C167.735 46.024 165.51 45.312 162.721 45.312C160.289 45.312 158.331 45.935 156.847 47.181C155.423 48.427 154.711 50.2367 154.711 52.61C154.711 54.2713 155.245 55.6657 156.313 56.793C157.441 57.861 158.805 58.751 160.407 59.463C162.069 60.1157 164.383 60.887 167.349 61.777C171.384 62.9637 174.677 64.1503 177.228 65.337C179.78 66.5237 181.975 68.3037 183.814 70.677C185.654 73.0503 186.573 76.1653 186.573 80.022C186.573 83.3447 185.713 86.43 183.992 89.278C182.272 92.126 179.75 94.4103 176.427 96.131C173.105 97.7923 169.159 98.623 164.59 98.623ZM229.238 86.163H204.496L200.402 98H187.319L209.658 35.789H224.165L246.504 98H233.332L229.238 86.163ZM225.856 76.195L216.867 50.207L207.878 76.195H225.856ZM245.598 66.85C245.598 60.7387 246.962 55.28 249.692 50.474C252.48 45.6087 256.248 41.841 260.995 39.171C265.801 36.4417 271.17 35.077 277.104 35.077C284.046 35.077 290.127 36.857 295.349 40.417C300.57 43.977 304.219 48.9017 306.296 55.191H291.967C290.543 52.2243 288.525 49.9993 285.915 48.516C283.363 47.0327 280.397 46.291 277.015 46.291C273.395 46.291 270.162 47.1513 267.314 48.872C264.525 50.5333 262.33 52.9067 260.728 55.992C259.185 59.0773 258.414 62.6967 258.414 66.85C258.414 70.944 259.185 74.5633 260.728 77.708C262.33 80.7933 264.525 83.1963 267.314 84.917C270.162 86.5783 273.395 87.409 277.015 87.409C280.397 87.409 283.363 86.6673 285.915 85.184C288.525 83.6413 290.543 81.3867 291.967 78.42H306.296C304.219 84.7687 300.57 89.723 295.349 93.283C290.187 96.7837 284.105 98.534 277.104 98.534C271.17 98.534 265.801 97.199 260.995 94.529C256.248 91.7997 252.48 88.032 249.692 83.226C246.962 78.42 245.598 72.9613 245.598 66.85ZM323.168 88.121H343.638V98H310.708V35.878H323.168V88.121ZM361.348 35.878V98H348.888V35.878H361.348ZM410.974 98.623C406.643 98.623 402.727 97.8813 399.226 96.398C395.785 94.9147 393.056 92.7787 391.038 89.99C389.021 87.2013 387.983 83.9083 387.923 80.111H401.273C401.451 82.6623 402.341 84.6797 403.943 86.163C405.605 87.6463 407.859 88.388 410.707 88.388C413.615 88.388 415.899 87.7057 417.56 86.341C419.222 84.917 420.052 83.0777 420.052 80.823C420.052 78.9837 419.489 77.4707 418.361 76.284C417.234 75.0973 415.81 74.1777 414.089 73.525C412.428 72.813 410.114 72.0417 407.147 71.211C403.113 70.0243 399.82 68.8673 397.268 67.74C394.776 66.5533 392.611 64.803 390.771 62.489C388.991 60.1157 388.101 56.971 388.101 53.055C388.101 49.3763 389.021 46.1723 390.86 43.443C392.7 40.7137 395.281 38.637 398.603 37.213C401.926 35.7297 405.723 34.988 409.995 34.988C416.403 34.988 421.595 36.5603 425.57 39.705C429.605 42.7903 431.83 47.1217 432.245 52.699H418.539C418.421 50.563 417.501 48.8127 415.78 47.448C414.119 46.024 411.894 45.312 409.105 45.312C406.673 45.312 404.715 45.935 403.231 47.181C401.807 48.427 401.095 50.2367 401.095 52.61C401.095 54.2713 401.629 55.6657 402.697 56.793C403.825 57.861 405.189 58.751 406.791 59.463C408.453 60.1157 410.767 60.887 413.733 61.777C417.768 62.9637 421.061 64.1503 423.612 65.337C426.164 66.5237 428.359 68.3037 430.198 70.677C432.038 73.0503 432.957 76.1653 432.957 80.022C432.957 83.3447 432.097 86.43 430.376 89.278C428.656 92.126 426.134 94.4103 422.811 96.131C419.489 97.7923 415.543 98.623 410.974 98.623ZM508.552 48.694L494.134 98H480.695L471.706 63.557L462.717 98H449.189L434.682 48.694H447.32L456.042 86.252L465.476 48.694H478.648L487.904 86.163L496.626 48.694H508.552ZM518.052 42.82C515.857 42.82 514.018 42.1377 512.534 40.773C511.11 39.349 510.398 37.5987 510.398 35.522C510.398 33.4453 511.11 31.7247 512.534 30.36C514.018 28.936 515.857 28.224 518.052 28.224C520.248 28.224 522.057 28.936 523.481 30.36C524.965 31.7247 525.706 33.4453 525.706 35.522C525.706 37.5987 524.965 39.349 523.481 40.773C522.057 42.1377 520.248 42.82 518.052 42.82ZM524.193 48.694V98H511.733V48.694H524.193ZM555.55 58.929H546.917V98H534.279V58.929H528.672V48.694H534.279V46.202C534.279 40.15 536 35.7 539.441 32.852C542.882 30.004 548.074 28.669 555.016 28.847V39.349C551.99 39.2897 549.884 39.794 548.697 40.862C547.51 41.93 546.917 43.8583 546.917 46.647V48.694H555.55V58.929ZM574.572 58.929V82.781C574.572 84.4423 574.957 85.6587 575.729 86.43C576.559 87.142 577.924 87.498 579.823 87.498H585.608V98H577.776C567.274 98 562.023 92.8973 562.023 82.692V58.929H556.149V48.694H562.023V36.501H574.572V48.694H585.608V58.929H574.572Z" fill="black"/>
</svg>
