<svg width="600" height="134" viewBox="0 0 600 134" fill="none" xmlns="http://www.w3.org/2000/svg">
<path d="M112.765 61.515C112.265 62.515 102.765 76.015 102.765 76.015L76.765 31.515C74.9479 28.5058 73.5574 27.5644 70.265 27.515H52.265L94.765 102.515C96.0488 105.834 95.9812 107.696 94.765 111.015L84.265 126.515L24.7649 21.515C22.1431 16.2945 28.9083 7.76359 31.7649 7.51505C34.6215 7.2665 79.265 7.01504 79.265 7.01504C83.4475 6.86801 85.2842 7.76943 87.765 11.015L111.765 55.515C112.852 57.8474 113.265 60.515 112.765 61.515Z" fill="#00DB33"/>
<path d="M49.7649 106.015L9.26489 39.015L1.26489 52.015C-0.0111771 54.9896 -0.275513 56.6337 0.264893 59.515L23.2649 99.515C25.0439 102.787 26.2441 104.236 28.7649 106.015H49.7649Z" fill="#00DB33"/>
<path d="M166.124 98.623C161.555 98.623 157.461 97.8813 153.842 96.398C150.223 94.9147 147.315 92.7193 145.12 89.812C142.984 86.9047 141.857 83.404 141.738 79.31H157.936C158.173 81.624 158.974 83.404 160.339 84.65C161.704 85.8367 163.484 86.43 165.679 86.43C167.934 86.43 169.714 85.9257 171.019 84.917C172.324 83.849 172.977 82.3953 172.977 80.556C172.977 79.0133 172.443 77.7377 171.375 76.729C170.366 75.7203 169.091 74.8897 167.548 74.237C166.065 73.5843 163.929 72.8427 161.14 72.012C157.105 70.766 153.812 69.52 151.261 68.274C148.71 67.028 146.514 65.1887 144.675 62.756C142.836 60.3233 141.916 57.149 141.916 53.233C141.916 47.4183 144.022 42.8793 148.235 39.616C152.448 36.2933 157.936 34.632 164.7 34.632C171.583 34.632 177.13 36.2933 181.343 39.616C185.556 42.8793 187.81 47.448 188.107 53.322H171.642C171.523 51.3047 170.782 49.7323 169.417 48.605C168.052 47.4183 166.302 46.825 164.166 46.825C162.327 46.825 160.843 47.3293 159.716 48.338C158.589 49.2873 158.025 50.6817 158.025 52.521C158.025 54.5383 158.974 56.1107 160.873 57.238C162.772 58.3653 165.738 59.5817 169.773 60.887C173.808 62.2517 177.071 63.557 179.563 64.803C182.114 66.049 184.31 67.8587 186.149 70.232C187.988 72.6053 188.908 75.661 188.908 79.399C188.908 82.959 187.988 86.1927 186.149 89.1C184.369 92.0073 181.758 94.3213 178.317 96.042C174.876 97.7627 170.811 98.623 166.124 98.623ZM230.937 86.964H207.619L203.881 98H187.95L210.556 35.522H228.178L250.784 98H234.675L230.937 86.964ZM227.021 75.216L219.278 52.343L211.624 75.216H227.021ZM248.853 66.672C248.853 60.5013 250.188 55.013 252.858 50.207C255.528 45.3417 259.236 41.574 263.983 38.904C268.789 36.1747 274.218 34.81 280.27 34.81C287.687 34.81 294.035 36.768 299.316 40.684C304.597 44.6 308.127 49.94 309.907 56.704H293.175C291.929 54.0933 290.149 52.1057 287.835 50.741C285.58 49.3763 282.999 48.694 280.092 48.694C275.405 48.694 271.607 50.3257 268.7 53.589C265.793 56.8523 264.339 61.2133 264.339 66.672C264.339 72.1307 265.793 76.4917 268.7 79.755C271.607 83.0183 275.405 84.65 280.092 84.65C282.999 84.65 285.58 83.9677 287.835 82.603C290.149 81.2383 291.929 79.2507 293.175 76.64H309.907C308.127 83.404 304.597 88.744 299.316 92.66C294.035 96.5167 287.687 98.445 280.27 98.445C274.218 98.445 268.789 97.11 263.983 94.44C259.236 91.7107 255.528 87.943 252.858 83.137C250.188 78.331 248.853 72.8427 248.853 66.672ZM328.216 86.252H348.152V98H312.997V35.522H328.216V86.252ZM367.96 35.522V98H352.741V35.522H367.96ZM415.115 98.623C410.547 98.623 406.453 97.8813 402.833 96.398C399.214 94.9147 396.307 92.7193 394.111 89.812C391.975 86.9047 390.848 83.404 390.729 79.31H406.927C407.165 81.624 407.966 83.404 409.33 84.65C410.695 85.8367 412.475 86.43 414.67 86.43C416.925 86.43 418.705 85.9257 420.01 84.917C421.316 83.849 421.968 82.3953 421.968 80.556C421.968 79.0133 421.434 77.7377 420.366 76.729C419.358 75.7203 418.082 74.8897 416.539 74.237C415.056 73.5843 412.92 72.8427 410.131 72.012C406.097 70.766 402.804 69.52 400.252 68.274C397.701 67.028 395.506 65.1887 393.666 62.756C391.827 60.3233 390.907 57.149 390.907 53.233C390.907 47.4183 393.014 42.8793 397.226 39.616C401.439 36.2933 406.927 34.632 413.691 34.632C420.574 34.632 426.122 36.2933 430.334 39.616C434.547 42.8793 436.802 47.448 437.098 53.322H420.633C420.515 51.3047 419.773 49.7323 418.408 48.605C417.044 47.4183 415.293 46.825 413.157 46.825C411.318 46.825 409.835 47.3293 408.707 48.338C407.58 49.2873 407.016 50.6817 407.016 52.521C407.016 54.5383 407.966 56.1107 409.864 57.238C411.763 58.3653 414.73 59.5817 418.764 60.887C422.799 62.2517 426.062 63.557 428.554 64.803C431.106 66.049 433.301 67.8587 435.14 70.232C436.98 72.6053 437.899 75.661 437.899 79.399C437.899 82.959 436.98 86.1927 435.14 89.1C433.36 92.0073 430.75 94.3213 427.308 96.042C423.867 97.7627 419.803 98.623 415.115 98.623ZM514.994 48.338L501.555 98H484.734L476.902 65.782L468.803 98H452.071L438.543 48.338H453.762L460.793 83.849L469.159 48.338H485.268L493.723 83.671L500.665 48.338H514.994ZM524.892 43.176C522.222 43.176 520.027 42.4047 518.306 40.862C516.645 39.26 515.814 37.302 515.814 34.988C515.814 32.6147 516.645 30.6567 518.306 29.114C520.027 27.512 522.222 26.711 524.892 26.711C527.503 26.711 529.639 27.512 531.3 29.114C533.021 30.6567 533.881 32.6147 533.881 34.988C533.881 37.302 533.021 39.26 531.3 40.862C529.639 42.4047 527.503 43.176 524.892 43.176ZM532.457 48.338V98H517.238V48.338H532.457ZM564.846 60.976H556.658V98H541.439V60.976H535.921V48.338H541.439V46.914C541.439 40.8027 543.189 36.1747 546.69 33.03C550.191 29.826 555.323 28.224 562.087 28.224C563.214 28.224 564.045 28.2537 564.579 28.313V41.218C561.672 41.04 559.625 41.4553 558.438 42.464C557.251 43.4727 556.658 45.2823 556.658 47.893V48.338H564.846V60.976ZM596.116 85.095V98H588.373C582.855 98 578.554 96.665 575.468 93.995C572.383 91.2657 570.84 86.8453 570.84 80.734V60.976H564.788V48.338H570.84V36.234H586.059V48.338H596.027V60.976H586.059V80.912C586.059 82.3953 586.415 83.4633 587.127 84.116C587.839 84.7687 589.026 85.095 590.687 85.095H596.116Z" fill="black"/>
</svg>
