<svg width="618" height="134" viewBox="0 0 618 134" fill="none" xmlns="http://www.w3.org/2000/svg">
<path d="M112.765 61.515C112.265 62.515 102.765 76.015 102.765 76.015L76.765 31.515C74.9479 28.5058 73.5574 27.5644 70.265 27.515H52.265L94.765 102.515C96.0488 105.834 95.9812 107.696 94.765 111.015L84.265 126.515L24.7649 21.515C22.1431 16.2945 28.9083 7.76359 31.7649 7.51505C34.6215 7.2665 79.265 7.01504 79.265 7.01504C83.4475 6.86801 85.2842 7.76943 87.765 11.015L111.765 55.515C112.852 57.8474 113.265 60.515 112.765 61.515Z" fill="#00DB33"/>
<path d="M49.7649 106.015L9.26489 39.015L1.26489 52.015C-0.0111771 54.9896 -0.275513 56.6337 0.264893 59.515L23.2649 99.515C25.0439 102.787 26.2441 104.236 28.7649 106.015H49.7649Z" fill="#00DB33"/>
<path d="M193.59 98.623C189.259 98.623 185.343 97.8813 181.842 96.398C178.401 94.9147 175.672 92.7787 173.654 89.99C171.637 87.2013 170.599 83.9083 170.539 80.111H183.889C184.067 82.6623 184.957 84.6797 186.559 86.163C188.221 87.6463 190.475 88.388 193.323 88.388C196.231 88.388 198.515 87.7057 200.176 86.341C201.838 84.917 202.668 83.0777 202.668 80.823C202.668 78.9837 202.105 77.4707 200.977 76.284C199.85 75.0973 198.426 74.1777 196.705 73.525C195.044 72.813 192.73 72.0417 189.763 71.211C185.729 70.0243 182.436 68.8673 179.884 67.74C177.392 66.5533 175.227 64.803 173.387 62.489C171.607 60.1157 170.717 56.971 170.717 53.055C170.717 49.3763 171.637 46.1723 173.476 43.443C175.316 40.7137 177.897 38.637 181.219 37.213C184.542 35.7297 188.339 34.988 192.611 34.988C199.019 34.988 204.211 36.5603 208.186 39.705C212.221 42.7903 214.446 47.1217 214.861 52.699H201.155C201.037 50.563 200.117 48.8127 198.396 47.448C196.735 46.024 194.51 45.312 191.721 45.312C189.289 45.312 187.331 45.935 185.847 47.181C184.423 48.427 183.711 50.2367 183.711 52.61C183.711 54.2713 184.245 55.6657 185.313 56.793C186.441 57.861 187.805 58.751 189.407 59.463C191.069 60.1157 193.383 60.887 196.349 61.777C200.384 62.9637 203.677 64.1503 206.228 65.337C208.78 66.5237 210.975 68.3037 212.814 70.677C214.654 73.0503 215.573 76.1653 215.573 80.022C215.573 83.3447 214.713 86.43 212.992 89.278C211.272 92.126 208.75 94.4103 205.427 96.131C202.105 97.7923 198.159 98.623 193.59 98.623ZM258.238 86.163H233.496L229.402 98H216.319L238.658 35.789H253.165L275.504 98H262.332L258.238 86.163ZM254.856 76.195L245.867 50.207L236.878 76.195H254.856ZM274.598 66.85C274.598 60.7387 275.962 55.28 278.692 50.474C281.48 45.6087 285.248 41.841 289.995 39.171C294.801 36.4417 300.17 35.077 306.104 35.077C313.046 35.077 319.127 36.857 324.349 40.417C329.57 43.977 333.219 48.9017 335.296 55.191H320.967C319.543 52.2243 317.525 49.9993 314.915 48.516C312.363 47.0327 309.397 46.291 306.015 46.291C302.395 46.291 299.162 47.1513 296.314 48.872C293.525 50.5333 291.33 52.9067 289.728 55.992C288.185 59.0773 287.414 62.6967 287.414 66.85C287.414 70.944 288.185 74.5633 289.728 77.708C291.33 80.7933 293.525 83.1963 296.314 84.917C299.162 86.5783 302.395 87.409 306.015 87.409C309.397 87.409 312.363 86.6673 314.915 85.184C317.525 83.6413 319.543 81.3867 320.967 78.42H335.296C333.219 84.7687 329.57 89.723 324.349 93.283C319.187 96.7837 313.105 98.534 306.104 98.534C300.17 98.534 294.801 97.199 289.995 94.529C285.248 91.7997 281.48 88.032 278.692 83.226C275.962 78.42 274.598 72.9613 274.598 66.85ZM352.168 88.121H372.638V98H339.708V35.878H352.168V88.121ZM390.348 35.878V98H377.888V35.878H390.348ZM439.974 98.623C435.643 98.623 431.727 97.8813 428.226 96.398C424.785 94.9147 422.056 92.7787 420.038 89.99C418.021 87.2013 416.983 83.9083 416.923 80.111H430.273C430.451 82.6623 431.341 84.6797 432.943 86.163C434.605 87.6463 436.859 88.388 439.707 88.388C442.615 88.388 444.899 87.7057 446.56 86.341C448.222 84.917 449.052 83.0777 449.052 80.823C449.052 78.9837 448.489 77.4707 447.361 76.284C446.234 75.0973 444.81 74.1777 443.089 73.525C441.428 72.813 439.114 72.0417 436.147 71.211C432.113 70.0243 428.82 68.8673 426.268 67.74C423.776 66.5533 421.611 64.803 419.771 62.489C417.991 60.1157 417.101 56.971 417.101 53.055C417.101 49.3763 418.021 46.1723 419.86 43.443C421.7 40.7137 424.281 38.637 427.603 37.213C430.926 35.7297 434.723 34.988 438.995 34.988C445.403 34.988 450.595 36.5603 454.57 39.705C458.605 42.7903 460.83 47.1217 461.245 52.699H447.539C447.421 50.563 446.501 48.8127 444.78 47.448C443.119 46.024 440.894 45.312 438.105 45.312C435.673 45.312 433.715 45.935 432.231 47.181C430.807 48.427 430.095 50.2367 430.095 52.61C430.095 54.2713 430.629 55.6657 431.697 56.793C432.825 57.861 434.189 58.751 435.791 59.463C437.453 60.1157 439.767 60.887 442.733 61.777C446.768 62.9637 450.061 64.1503 452.612 65.337C455.164 66.5237 457.359 68.3037 459.198 70.677C461.038 73.0503 461.957 76.1653 461.957 80.022C461.957 83.3447 461.097 86.43 459.376 89.278C457.656 92.126 455.134 94.4103 451.811 96.131C448.489 97.7923 444.543 98.623 439.974 98.623ZM537.552 48.694L523.134 98H509.695L500.706 63.557L491.717 98H478.189L463.682 48.694H476.32L485.042 86.252L494.476 48.694H507.648L516.904 86.163L525.626 48.694H537.552ZM547.052 42.82C544.857 42.82 543.018 42.1377 541.534 40.773C540.11 39.349 539.398 37.5987 539.398 35.522C539.398 33.4453 540.11 31.7247 541.534 30.36C543.018 28.936 544.857 28.224 547.052 28.224C549.248 28.224 551.057 28.936 552.481 30.36C553.965 31.7247 554.706 33.4453 554.706 35.522C554.706 37.5987 553.965 39.349 552.481 40.773C551.057 42.1377 549.248 42.82 547.052 42.82ZM553.193 48.694V98H540.733V48.694H553.193ZM584.55 58.929H575.917V98H563.279V58.929H557.672V48.694H563.279V46.202C563.279 40.15 565 35.7 568.441 32.852C571.882 30.004 577.074 28.669 584.016 28.847V39.349C580.99 39.2897 578.884 39.794 577.697 40.862C576.51 41.93 575.917 43.8583 575.917 46.647V48.694H584.55V58.929ZM603.572 58.929V82.781C603.572 84.4423 603.957 85.6587 604.729 86.43C605.559 87.142 606.924 87.498 608.823 87.498H614.608V98H606.776C596.274 98 591.023 92.8973 591.023 82.692V58.929H585.149V48.694H591.023V36.501H603.572V48.694H614.608V58.929H603.572Z" fill="black"/>
</svg>
